<svg width="941" height="53" viewBox="0 0 941 53" fill="none" xmlns="http://www.w3.org/2000/svg">
<g opacity="0.8">
<g clip-path="url(#clip0_128_434)">
<path fill-rule="evenodd" clip-rule="evenodd" d="M20.6317 8.28838H25.059V33.7285H20.6254L20.6317 8.28838ZM38.3676 18.6584L39.6248 18.7982L40.7343 19.1923L41.6777 19.7979L42.4484 20.5622L43.0435 21.4406L43.4669 22.3886L43.7213 23.3695L43.8093 24.3442L43.7386 25.308L43.5224 26.2628L43.1475 27.1934L42.5942 28.0522L41.8514 28.7994L40.9199 29.3837L39.8068 29.7546L38.5273 29.8831L37.2345 29.7477L36.0985 29.3608L35.1375 28.7682L34.3634 28.021L33.7673 27.1748L33.3476 26.2673L33.0969 25.3436L33.0138 24.433L33.0959 23.5183L33.3396 22.5668L33.7421 21.6195L34.3159 20.7171L35.0614 19.9103L35.9929 19.2533L37.1014 18.8146L38.3676 18.6584ZM28.8234 24.507L29.0419 26.5651L29.6589 28.4306L30.6212 30.0935L31.8785 31.522L33.3725 32.6894L35.0461 33.5602L36.8364 34.1031L38.6827 34.2879L40.5015 34.0942L42.228 33.5318L43.8193 32.6328L45.2286 31.4291L46.4045 29.9592L47.3031 28.2534L47.8759 26.3496L48.0788 24.2743L47.861 22.2029L47.2476 20.2945L46.2886 18.5778L45.0366 17.0876L43.5443 15.8651L41.8716 14.9483L40.0761 14.3742L38.2175 14.1744L36.3847 14.3831L34.6523 14.9771L33.06 15.9234L31.6553 17.1805L30.4811 18.7115L29.5895 20.4711L29.0216 22.4178L28.8234 24.507ZM60.6117 18.6584L61.8689 18.7982L62.9784 19.1923L63.9228 19.7979L64.6935 20.5622L65.289 21.4406L65.7114 22.3886L65.9664 23.3695L66.0547 24.3442L65.983 25.308L65.7678 26.2628L65.3919 27.1934L64.8387 28.0522L64.0958 28.8001L63.1643 29.3837L62.0506 29.7546L60.7717 29.8831L59.479 29.7477L58.3429 29.3608L57.3812 28.7682L56.6068 28.021L56.0108 27.1735L55.5917 26.267L55.342 25.3433L55.2589 24.4327L55.3403 23.5179L55.5847 22.5665L55.9875 21.6192L56.5603 20.7168L57.3068 19.91L58.2383 19.253L59.3468 18.8143L60.6117 18.6584ZM51.0668 24.507L51.2863 26.5651L51.9033 28.4306L52.8657 30.0935L54.1229 31.522L55.6159 32.6894L57.2902 33.5602L59.0798 34.1031L60.9255 34.2879L62.7449 34.0939L64.4704 33.5315L66.062 32.6325L67.473 31.4288L68.6479 29.9588L69.5465 28.2531L70.1203 26.3492L70.3226 24.274L70.1057 22.2025L69.492 20.2942L68.532 18.5775L67.2801 17.0873L65.7877 15.8648L64.1161 14.948L62.3205 14.3739L60.4622 14.1741L58.6295 14.3828L56.8974 14.9767L55.3041 15.923L53.8991 17.1802L52.7259 18.7111L51.8332 20.4707L51.2657 22.4174L51.0668 24.507ZM73.9269 14.7331H77.428V18.2776L80.0726 15.7013L81.3661 14.8767L82.7097 14.3986L84.0592 14.2666L85.3742 14.4932L86.6348 15.0899L87.809 16.092L89.652 18.6388L90.8193 16.6102L91.4595 15.8747L92.2329 15.2585L93.1176 14.767L94.0852 14.414L95.11 14.1981L96.1591 14.1312L97.2061 14.2125L98.2153 14.4496L99.1653 14.8366L100.029 15.376L100.785 16.0673L101.413 16.9176L101.897 17.9396L102.211 19.1509L102.327 20.6006V33.7285H97.9785L98.0519 21.9701L97.5312 20.2089L96.5512 18.9747L95.2648 18.3334L93.8877 18.255L92.569 18.6508L91.4207 19.4504L90.5593 20.6188L90.1525 22.0538V33.648H85.9524V22.9956L85.6545 21.0544L84.7785 19.5813L83.4894 18.7334L82.0319 18.5281L80.6069 18.9065L79.3756 19.8127L78.5116 21.2L78.2084 22.9041V33.6483H73.8565L73.9269 14.7331ZM106.314 8.20818H110.512V17.7241L112.52 15.8702L113.137 15.4487L113.775 15.1258L114.412 14.8904L115.019 14.7307L115.576 14.6333L116.389 14.5737L117.999 14.7341L119.627 15.2033L121.211 15.9861L122.672 17.0794L123.93 18.4839L124.919 20.1952L125.57 22.2275L125.807 24.5907L125.605 26.464L125.037 28.2051L124.149 29.7868L122.997 31.167L121.632 32.3083L120.118 33.1637L118.515 33.7004L116.857 33.8865L116.024 33.8457L115.273 33.7285L114.61 33.551L114.013 33.3207L113.464 33.0537L112.444 32.4292L110.668 31.2283V33.7285H106.314V8.20818H106.314ZM110.429 24.19L110.559 25.4643L110.929 26.6066L111.495 27.6012L112.222 28.4292L113.062 29.0886L113.986 29.5668L114.957 29.8632L115.944 29.9643L116.929 29.868L117.905 29.5835L118.837 29.1215L119.694 28.481L120.436 27.6697L121.022 26.6865L121.404 25.5486L121.541 24.2723L121.408 22.9997L121.041 21.8485L120.475 20.8453L119.753 20.0008L118.913 19.3294L117.992 18.8345L117.019 18.5271L116.026 18.4184L115.032 18.5209L114.055 18.816L113.122 19.2948L112.268 19.9484L111.528 20.7768L110.944 21.7693L110.564 22.9161L110.429 24.19ZM159.087 15.6763L159.752 15.2163L160.413 14.8873L161.042 14.6858L161.608 14.5946L161.877 14.5997V18.7687L161.108 18.7858L160.145 18.925L159.175 19.2156L158.247 19.716L157.451 20.4765L156.907 21.5253L156.726 22.7567V33.8101H152.224L152.439 14.7327H156.334V18.9175L158.442 16.2788L159.087 15.6763ZM5.53191 22.5857L9.45738 22.6124L10.6196 22.9486L11.5166 23.6917L12.0516 24.6698L12.2555 25.7398L12.1535 26.8146L11.749 27.8113L11.0112 28.6273L9.97509 29.0732H5.54851L5.53191 22.5857ZM5.5349 12.6222L9.01671 12.6452L10.0475 12.945L10.8478 13.6093L11.3246 14.4812L11.506 15.4298L11.4143 16.3823L11.0557 17.2696L10.3928 18.0017L9.46502 18.4013H5.54851L5.5349 12.6222ZM0.332599 33.5674H10.8521L12.1767 33.4002L13.3613 32.9389L14.4405 32.2219L15.3883 31.2801L16.1703 30.1717L16.7577 28.9447L17.125 27.6581L17.2545 26.3475L17.1838 25.113L16.9842 24.0474L16.6687 23.1577L16.25 22.4219L15.727 21.8139L15.0974 21.3111L14.3499 20.9019L11.4668 19.8404L13.9275 18.7314L14.3731 18.4085L14.7885 17.9705L15.1618 17.4149L15.4753 16.7497L15.7163 15.9738L15.8701 15.0953L15.9256 14.1439L15.8372 13.3268L15.5623 12.3771L15.0847 11.3651L14.4073 10.3797L13.527 9.49924L12.4394 8.78774L11.1304 8.30963L9.52911 8.12695H0.320312L0.332599 33.5674ZM175.025 43.7962L173.001 43.6879L171.187 43.3599L169.606 42.8283L168.272 42.1042L167.184 41.1997L166.343 40.1167L165.745 38.8434L165.627 38.3365H170.608L170.677 38.4846L171.121 39.073L171.643 39.5323L172.207 39.8678L172.782 40.1023L173.355 40.249L173.901 40.3298L174.422 40.3518L175.004 40.3117L175.714 40.1832L176.498 39.9508L177.31 39.5878L178.095 39.0652L178.783 38.3396L179.267 37.3892L179.436 36.3007V30.316L177.428 32.1756L176.81 32.5961L176.171 32.92L175.537 33.1538L174.926 33.3145L174.372 33.4088L173.561 33.4677L171.946 33.3097L170.318 32.8405L168.734 32.0581L167.274 30.9637L166.015 29.562L165.027 27.8497L164.377 25.8193L164.142 23.4507L164.343 21.5801L164.911 19.8384L165.797 18.2574L166.95 16.8751L168.313 15.7362L169.828 14.8801L171.432 14.3424L173.092 14.1532L173.922 14.196L174.674 14.3136L175.337 14.4928L175.934 14.7204L176.482 14.9908C177.45 15.5546 178.358 16.1845 179.282 16.8001V14.3129H183.637L183.653 35.8291L183.475 37.5983L182.983 39.132L182.206 40.4721L181.172 41.6099L179.907 42.5356L178.442 43.2204L176.807 43.6495L175.025 43.7962ZM179.519 23.8528L179.387 22.5802L179.019 21.4362L178.449 20.4447L177.726 19.6142L176.883 18.9579L175.963 18.4784L174.992 18.1823L174.006 18.0788L173.017 18.1778L172.043 18.4616L171.11 18.9253L170.255 19.5608L169.512 20.3751L168.926 21.3567L168.544 22.4973L168.41 23.7681L168.539 25.0451L168.907 26.1946L169.471 27.2002L170.195 28.0423L171.033 28.7158L171.957 29.2096L172.929 29.5167L173.924 29.6233L174.915 29.5222L175.893 29.2264L176.826 28.7504L177.681 28.0951L178.42 27.2691L179.004 26.2759L179.384 25.1301L179.519 23.8528ZM148.074 20.8223L147.591 19.7366L146.861 18.5291L145.992 17.4502L144.995 16.5012L143.893 15.6944L142.701 15.047L141.447 14.5689L140.145 14.2745L138.837 14.173L136.991 14.3835L135.259 14.9774L133.665 15.9237L132.261 17.1808L131.087 18.7118L130.195 20.4714L129.627 22.4181L129.428 24.5074L129.648 26.5655L130.264 28.4309L131.227 30.0939L132.484 31.5224L133.977 32.6897L135.651 33.5606L137.441 34.1035L139.297 34.2889L140.74 34.1703L142.14 33.8235L143.463 33.2638L144.692 32.5005L145.796 31.5546L146.755 30.4359L147.545 29.1634L147.666 28.8796H143.263C142.949 29.2062 142.592 29.4554 142.224 29.7049L141.697 29.9859L141.12 30.2162L140.498 30.3849L139.836 30.4887L139.121 30.5247L138.04 30.4356L137.044 30.1785L136.15 29.7803L135.367 29.2614L134.69 28.6561L134.124 27.9847L133.664 27.2739L132.726 25.3488H148.456V25.3087H148.637C148.691 24.7524 148.686 24.2047 148.671 23.6557L148.62 23.0607L148.535 22.4856L148.418 21.9229L148.264 21.3717L148.074 20.8223ZM138.977 18.0983L139.905 18.1696L140.768 18.3739L141.557 18.6933L142.272 19.1125L142.904 19.6173L143.457 20.1808L143.928 20.7925L145.103 22.7098H132.92L134.12 20.797L134.59 20.1934L135.133 19.6344L135.756 19.1296L136.454 18.707L137.228 18.3807L138.07 18.172L138.977 18.0983Z" fill="#959AA5"/>
</g>
<path d="M393.984 0.929688C395.176 1.16815 396.011 1.88353 396.011 3.07585C396.011 3.43355 395.892 4.02973 395.772 4.50666C394.938 7.96439 391.838 20.3645 390.645 28.5916L389.453 27.3992L393.268 2.12201L393.984 0.929688Z" fill="#959AA5"/>
<path d="M316.96 4.39062C315.41 4.74832 313.74 4.74832 312.31 4.39062L314.814 6.89451L316.96 4.39062Z" fill="#959AA5"/>
<path d="M292.515 4.39062C294.065 4.74832 295.734 4.74832 297.165 4.39062L294.661 6.89451L292.515 4.39062Z" fill="#959AA5"/>
<path d="M278.685 4.26758C282.262 13.4485 287.985 27.1602 290.847 32.5257L286.674 31.2141L276.301 5.34066L278.685 4.26758Z" fill="#959AA5"/>
<path d="M275.343 4.26758C276.535 4.62528 277.489 4.62528 278.562 4.26758L276.177 5.69838L275.343 4.26758Z" fill="#959AA5"/>
<path d="M277.012 5.34375L287.624 31.2172C287.028 31.9326 286.67 32.2903 286.074 32.5287C282.974 24.6594 279.755 16.7901 276.893 9.03996L275.462 6.65531L277.012 5.34375Z" fill="#959AA5"/>
<path d="M267.955 32.5287L264.855 31.4556L275.825 5.70147L277.017 5.34375V9.1592C275.348 14.0477 271.056 24.8979 267.955 32.5287Z" fill="#959AA5"/>
<path d="M265.328 0.572266L266.401 2.95691L269.024 1.76459L270.097 0.691505C268.428 0.92997 266.878 0.929963 265.328 0.572266Z" fill="#959AA5"/>
<path d="M257.938 21.0802L256.15 21.7956L255.077 19.7687L266.285 1.88383L267.119 1.64535C268.192 1.40688 269.385 1.16843 270.219 0.572266C268.312 2.95691 261.873 14.1648 257.938 21.0802Z" fill="#959AA5"/>
<path d="M255.556 20.8418L256.033 20.3648L267.122 1.64535L265.452 0.572266C264.141 3.07614 259.133 11.0647 256.033 16.3109L254.483 19.1725L255.556 20.8418Z" fill="#959AA5"/>
<path d="M246.611 0.572266C249.115 4.86463 252.811 11.0647 256.031 16.3109V20.3648L255.315 21.0802L244.346 1.52615L246.611 0.572266Z" fill="#959AA5"/>
<path d="M244.822 1.76459L246.611 0.572266C244.703 0.929963 243.868 1.04919 241.96 0.572266L242.676 1.40691L244.822 1.76459Z" fill="#959AA5"/>
<path d="M256.03 20.3648L255.195 21.5572L254.122 21.0802C251.976 17.5033 245.895 6.41465 241.96 0.572266C242.795 1.16843 243.749 1.40688 245.061 1.64535L256.03 20.3648Z" fill="#959AA5"/>
<path d="M258.296 36.2252L255.077 34.6752L255.315 21.3211L256.031 20.248L258.057 20.9634L258.296 36.2252Z" fill="#959AA5"/>
<path d="M256.03 35.152L253.765 36.2251L254.003 21.0826L256.03 20.3672V35.152Z" fill="#959AA5"/>
<path d="M263.307 32.5257C267.241 24.5371 271.534 13.8062 275.349 4.26758L277.018 5.22142L266.287 31.4525L264.141 32.1679L263.307 32.5257Z" fill="#959AA5"/>
<path d="M287.51 31.0958L290.848 32.5266C289.537 32.1689 287.867 32.0497 286.198 32.5266L286.794 30.9766L287.51 31.0958Z" fill="#959AA5"/>
<path d="M269.742 23.3464L272.007 22.3926C275.346 22.5118 278.684 22.5118 282.023 22.3926L284.407 23.4657L282.261 23.9426H271.411L269.742 23.3464Z" fill="#959AA5"/>
<path d="M271.292 24.3011L269.742 23.3472C274.63 23.228 279.519 23.228 284.407 23.3472L282.857 24.3011C278.923 24.1818 275.107 24.1818 271.292 24.3011Z" fill="#959AA5"/>
<path d="M297.168 32.5295L293.83 31.4563V6.17911L294.784 5.70219L297.168 4.39062C296.691 13.6907 296.691 23.1101 297.168 32.5295Z" fill="#959AA5"/>
<path d="M294.784 31.2179V31.9333L292.399 32.6487C292.757 23.2293 292.757 13.81 292.399 4.39062L294.784 5.70219V31.2179Z" fill="#959AA5"/>
<path d="M312.192 32.5295L315.53 31.4563V6.17911L314.577 5.70219L312.192 4.39062C312.669 13.6907 312.669 23.1101 312.192 32.5295Z" fill="#959AA5"/>
<path d="M294.784 18.3385L296.811 17.5039C302.057 17.6231 307.304 17.6231 312.55 17.5039L314.577 18.3385L312.073 18.9347H296.811L294.784 18.3385Z" fill="#959AA5"/>
<path d="M333.532 4.26953C324.351 4.26953 319.701 9.99267 319.701 18.4582C319.701 28.9506 326.617 32.6468 333.413 32.6468C341.401 32.6468 347.125 28.116 347.125 18.4582C347.125 9.27728 341.759 4.26953 333.532 4.26953ZM333.174 5.70033H333.413C339.494 5.70033 344.025 9.87345 344.025 18.5774C344.025 27.2814 339.494 31.4545 333.413 31.4545C326.736 31.4545 322.801 26.6852 322.801 18.6966C322.92 9.39653 327.809 5.81957 333.174 5.70033Z" fill="#959AA5"/>
<path d="M333.53 3.91211C323.514 3.91211 318.268 10.2314 318.268 18.4584C318.268 27.4009 323.991 32.8855 333.411 32.8855C343.665 32.8855 348.672 26.6855 348.672 18.5777C348.672 9.39678 342.711 3.91211 333.53 3.91211ZM333.53 4.86595C341.399 4.86595 346.645 9.63524 346.645 18.4584C346.645 27.6393 341.161 32.0509 333.411 32.0509C326.972 32.0509 320.176 28.5932 320.176 18.4584C320.176 10.4699 324.587 4.86595 333.53 4.86595Z" fill="#959AA5"/>
<path d="M367.985 2.83594C358.566 2.83594 352.247 8.08217 352.247 18.4554C352.247 28.5901 358.208 34.1941 368.105 34.1941C375.616 34.1941 383.724 30.3786 383.724 18.5746C383.605 5.93599 374.662 2.83594 367.985 2.83594ZM367.866 4.02826C375.378 4.02826 380.862 8.5591 380.862 18.5746C380.862 29.4248 374.185 33.0017 367.866 33.0017C361.189 33.0017 354.989 29.0671 354.989 18.4554C355.108 7.24754 361.905 4.02826 367.866 4.02826Z" fill="#959AA5"/>
<path d="M367.871 2.24219C357.975 2.24219 350.344 7.84611 350.344 18.3385C350.344 26.9233 355.352 34.5541 367.99 34.5541C378.602 34.5541 385.517 28.7118 385.517 18.4578C385.517 8.9192 379.079 2.24219 367.871 2.24219ZM367.99 3.31531C374.548 3.31531 383.252 6.29611 383.252 18.6963C383.252 30.1426 375.263 33.958 367.99 33.958C358.452 33.958 352.609 28.4733 352.609 18.577C352.609 8.44228 358.809 3.31531 367.99 3.31531Z" fill="#959AA5"/>
<path d="M386.347 34.1971C386.347 33.0048 387.062 31.8125 388.612 31.8125C390.043 31.8125 391.116 32.6471 391.116 33.9587C391.116 35.6279 390.043 36.2241 388.97 36.2241C387.42 36.3433 386.347 35.6279 386.347 34.1971Z" fill="#959AA5"/>
<path d="M388.734 28.3571C389.927 20.2493 390.523 11.7838 391.238 3.1991C391.238 1.52985 392.311 0.814453 393.504 0.814453H393.98L393.623 2.84138L389.569 27.9994L388.734 28.3571Z" fill="#959AA5"/>
<path d="M253.768 36.2278L256.034 34.5586L258.299 36.2278C258.299 36.2278 257.107 35.9894 256.034 35.9894C255.08 35.9894 253.768 36.2278 253.768 36.2278Z" fill="#959AA5"/>
<path d="M263.309 32.5323L266.409 31.2207C266.886 31.8169 267.363 32.2938 267.959 32.5323C266.886 32.2938 265.098 32.0553 263.309 32.5323Z" fill="#959AA5"/>
<path d="M292.519 32.5323C294.069 32.1746 295.619 32.1746 297.169 32.5323L294.784 31.2207L292.519 32.5323Z" fill="#959AA5"/>
<path d="M296.809 19.4149L294.782 18.3418C301.34 18.461 307.897 18.461 314.455 18.3418L312.428 19.4149C307.301 19.2957 302.055 19.4149 296.809 19.4149Z" fill="#959AA5"/>
<path d="M314.574 31.214V31.9294L316.959 32.6447C316.601 23.2254 316.601 13.8061 316.959 4.38672L314.574 5.69828V31.214Z" fill="#959AA5"/>
<path d="M316.957 32.5303C315.407 32.1726 313.857 32.1726 312.307 32.5303L314.692 31.2188L316.957 32.5303Z" fill="#959AA5"/>
<path d="M389.687 27.5234L388.614 28.4773C389.33 28.358 389.807 28.4773 390.403 28.7158L389.687 27.5234Z" fill="#959AA5"/>
<path d="M393.503 4.98553C394.754 4.98553 395.768 4.07802 395.768 2.95857C395.768 1.83911 394.754 0.931641 393.503 0.931641C392.252 0.931641 391.237 1.83911 391.237 2.95857C391.237 4.07802 392.252 4.98553 393.503 4.98553Z" fill="#959AA5"/>
<path d="M291.617 41.6875V42.6414H286.848V45.9799H291.14V46.9337H286.848V51.9415H284.225V41.6875H291.617Z" fill="#959AA5"/>
<path d="M294.001 41.6875H296.625V51.9415H294.001V41.6875Z" fill="#959AA5"/>
<path d="M299.012 41.6875H300.443L306.405 48.126V41.6875H308.074V52.1799H306.882L300.443 45.026V52.1799H298.774V41.6875H299.012Z" fill="#959AA5"/>
<path d="M315.706 41.4531L320.475 51.9456H317.852L316.66 49.084H312.606L311.175 51.9456H309.506L314.514 41.4531H315.706ZM313.083 48.1301H316.183L314.752 44.7916L313.083 48.1301Z" fill="#959AA5"/>
<path d="M321.666 41.6875H323.335L329.297 48.126V41.6875H330.966V52.1799H329.774L323.335 45.026V52.1799H321.666V41.6875Z" fill="#959AA5"/>
<path d="M335.973 46.6979C335.973 47.4133 335.973 47.8903 336.211 48.3672C336.45 48.8441 336.688 49.3211 336.927 49.5595C337.165 49.798 337.642 50.2749 338.119 50.2749C338.596 50.2749 339.073 50.5134 339.55 50.5134C340.027 50.5134 340.265 50.5134 340.504 50.2749C340.742 50.0364 341.219 50.0364 341.457 49.798L342.173 49.0826C342.411 48.8441 342.65 48.6057 342.888 48.1287L343.842 48.8441C343.604 49.3211 343.365 49.5595 343.127 49.798C342.888 50.0364 342.411 50.5134 341.934 50.7518C341.457 50.9903 341.219 51.2288 340.742 51.4672C340.265 51.7057 339.788 51.7057 339.311 51.7057C338.357 51.7057 337.642 51.4672 336.927 51.2288C336.211 50.9903 335.496 50.5134 335.019 50.0364C334.542 49.5595 334.065 49.0826 333.827 48.3672C333.588 47.6518 333.35 46.9364 333.35 46.221C333.35 45.5056 333.588 44.7902 333.827 44.0748C334.065 43.3594 334.542 42.8825 335.019 42.4056C335.496 41.9286 336.211 41.4517 336.927 41.2133C337.642 40.9748 338.357 40.7363 339.311 40.7363C339.788 40.7363 340.504 40.7363 340.98 40.9748C341.457 41.2133 341.934 41.2133 342.411 41.4517C342.888 41.6902 343.127 41.9286 343.604 42.4056C343.842 42.644 344.081 43.121 344.557 43.5979L343.604 44.3133C343.365 44.0748 343.127 43.8364 342.888 43.3594L342.173 42.644C340.98 43.121 340.742 42.8825 340.504 42.8825C340.265 42.8825 339.788 42.644 339.55 42.644C339.073 42.644 338.596 42.644 338.119 42.8825C337.642 43.121 337.404 43.3594 336.927 43.5979C336.688 43.8364 336.45 44.3133 336.211 44.7902C335.973 45.2672 335.973 46.221 335.973 46.6979Z" fill="#959AA5"/>
<path d="M353.859 41.6875V42.6414H348.613V45.9799H352.905V46.9337H348.613V50.9876H353.859V51.9415H346.228V41.6875H353.859Z" fill="#959AA5"/>
<path d="M482.424 8.12703C479.487 8.13932 476.566 9.69325 475.108 12.7879L474.435 14.2163V26.0194V37.8225L475.108 39.251C476.153 41.4697 477.771 42.8703 480.197 43.6436C481.934 44.1978 484.705 43.9057 486.472 42.9864C487.618 42.39 489.24 40.6145 489.866 39.2711L490.44 38.0371V26.0194V14.0017L489.813 12.7275C488.308 9.6453 485.361 8.11473 482.424 8.12703ZM482.557 13.9749C482.664 13.9756 482.77 13.9861 482.871 14.0085C483.209 14.0832 483.774 14.4781 484.131 14.887L484.785 15.6314V25.9658V36.3002L484.305 37.0044C484.04 37.3934 483.544 37.81 483.204 37.9298C482.864 38.0497 482.48 38.1461 482.351 38.1444C481.836 38.1375 481.038 37.5654 480.577 36.8769L480.09 36.1526V26.0463C480.091 16.3993 480.106 15.9048 480.503 15.2491C480.973 14.4736 481.814 13.9699 482.557 13.9749Z" fill="#959AA5"/>
<path d="M549.705 43.5305C547.231 42.6078 545.606 41.0184 544.67 38.6057C544.34 37.7566 544.307 36.3227 544.313 23.1543L544.319 8.63895L547.202 8.57924L550.084 8.51953L550.087 22.421C550.09 33.1638 550.152 36.4445 550.359 36.8591C550.507 37.1541 550.967 37.5796 551.383 37.8046C552.315 38.3101 553.097 38.1548 553.953 37.2938L554.566 36.6775V22.5985V8.51953L557.45 8.57924L560.335 8.63895L560.334 23.1625C560.333 37.3549 560.323 37.7132 559.889 38.8813C559.261 40.5687 557.659 42.2625 555.879 43.1218C554.023 44.0177 551.465 44.187 549.705 43.5305H549.705Z" fill="#959AA5"/>
<path d="M454.266 26.0213V8.53125H461.415H468.564V11.5357V14.5401H464.402H460.241V18.6286V22.7171L462.855 22.6806L465.469 22.644L465.529 25.5666L465.588 28.4892H462.915H460.241V36.0002V43.5113H457.253H454.266V26.0213Z" fill="#959AA5"/>
<path d="M498.442 26.0213V8.53125H502.879C507.71 8.53125 509.032 8.73245 510.714 9.7234C511.982 10.4709 513.308 11.9738 513.982 13.4288C514.528 14.606 514.549 14.802 514.619 19.197C514.677 22.8544 514.624 24.0106 514.348 25.0932C513.95 26.6563 513.224 27.9884 512.221 28.9967L511.512 29.7096L513.383 36.1515C514.412 39.6945 515.319 42.7999 515.398 43.0523C515.542 43.5068 515.513 43.5113 512.463 43.5113H509.384L508.488 40.024C507.594 36.5489 505.314 27.8425 505.121 27.1693C505.047 26.9141 505.196 26.7758 505.653 26.6749C506.5 26.4879 508.029 25.1457 508.393 24.2707C508.604 23.7629 508.685 22.4858 508.685 19.6809V15.7947L508.062 15.1674C507.482 14.5844 507.323 14.5401 505.821 14.5401H504.204V29.0257V43.5113H501.323H498.442V26.0213Z" fill="#959AA5"/>
<path d="M526.392 43.3504C526.391 43.2618 526.367 36.7675 526.339 28.9184L526.288 14.6474L523.673 14.5871L521.059 14.5269V11.5291V8.53125H529.169H537.278V11.5357V14.5401H534.717H532.156V29.0257V43.5113H529.275C527.691 43.5113 526.393 43.4389 526.392 43.3504Z" fill="#959AA5"/>
<path d="M568.013 26.0217V8.53165H570.956H573.9L574.127 9.3364C574.252 9.77902 575.224 12.8934 576.287 16.2573C577.35 19.6212 578.523 23.3633 578.895 24.5731C579.266 25.7829 579.66 26.7728 579.771 26.7728C579.894 26.7728 579.967 23.2503 579.958 17.7059L579.945 8.63895L582.835 8.57924L585.725 8.51953V26.0156V43.5117H582.462H579.198L578.587 41.5266C578.251 40.4349 577.659 38.5414 577.272 37.3189C576.884 36.0964 576.019 33.32 575.348 31.1491C574.677 28.9782 574.049 27.202 573.952 27.202C573.854 27.202 573.775 30.8717 573.775 35.3568V43.5117H570.894H568.013V26.0217H568.013Z" fill="#959AA5"/>
<path d="M593.407 26.0213V8.53125H600.556H607.705V11.5357V14.5401H603.433H599.16L599.218 18.5639L599.276 22.5877H601.997H604.718L604.718 25.5384L604.718 28.4892H601.943H599.169V32.9958V37.5025H603.437H607.705V40.5069V43.5113H600.556H593.407V26.0213H593.407Z" fill="#959AA5"/>
<path d="M785.906 23.1702V16.8887H791.33C791.731 16.8887 791.85 17.1064 791.831 17.4476V17.947L791.851 34.8812C791.851 35.639 791.706 35.938 790.871 35.8974L785.928 35.8771L785.848 34.4602C785.568 34.3586 785.468 34.5792 785.347 34.6997C782.985 37.1328 778.924 36.5347 776.962 33.7822C774.962 30.9891 775.002 26.4017 777.042 23.6493C779.063 20.9346 782.685 20.518 785.307 22.6912C785.487 22.8102 785.607 22.9089 785.908 23.1702H785.906ZM783.665 26.2217C782.323 26.2217 781.303 27.2989 781.303 28.7767C781.303 30.2546 782.283 31.3318 783.645 31.3318C785.006 31.3318 786.025 30.2546 786.025 28.7985C786.025 27.3424 785.005 26.2261 783.663 26.2261L783.665 26.2217ZM773.996 35.8538H768.065L767.985 34.4747C767.724 34.3542 767.625 34.5952 767.484 34.7142C764.919 37.0108 761.213 36.6508 759.169 33.8955C757.085 31.1009 757.125 26.3466 759.248 23.5941C761.293 20.9375 764.899 20.5455 767.465 22.7158L767.988 23.1557V16.8887H773.478C773.879 16.8887 774.001 17.089 773.979 17.4476V34.6983L773.999 35.8567L773.996 35.8538ZM768.166 28.8072C768.166 27.3555 767.124 26.2522 765.8 26.2319C764.457 26.2319 763.416 27.3294 763.416 28.7869C763.416 30.2444 764.433 31.3419 765.783 31.3419C767.089 31.3419 768.149 30.2444 768.166 28.8058V28.8072ZM740.497 35.4851H734.68V28.3282C734.659 27.0115 734.07 26.2638 733.083 26.2841C732.077 26.3045 731.466 27.01 731.447 28.3282L731.426 34.6184L731.387 35.4633H725.65V16.8887H731.428V23.041C731.921 23.0018 732.059 22.6679 732.296 22.4705C733.913 21.1538 735.708 20.8199 737.638 21.5269C739.492 22.1947 740.418 23.6696 740.478 25.5191L740.498 35.4851H740.497ZM806.721 35.0888H801.033L800.956 33.894C799.943 34.8042 798.851 35.3167 797.609 35.4503C794.28 35.8103 792.005 33.3641 792.75 30.1762C793.094 28.7158 794.056 27.8433 795.464 27.3686C796.957 26.875 798.469 26.9519 799.998 27.2234L800.917 27.3758C801.013 26.2188 800.515 25.5931 799.349 25.4218C797.8 25.175 796.308 25.567 794.757 26.0853L793.744 22.3297C797.073 21.267 800.344 20.8881 803.616 22.064C805.337 22.6708 806.351 24.018 806.563 25.8385C806.926 28.8871 806.6 31.9473 806.737 35.0772L806.721 35.0888ZM799.968 29.3603C798.8 29.3415 798.112 29.8728 798.073 30.8019C798.035 31.6003 798.513 32.1491 799.278 32.1868C800.291 32.2449 801 31.4087 801.078 30.1762C801.136 29.2282 800.41 29.4939 799.969 29.3603H799.968ZM756.878 30.1588H748.278C748.568 31.506 749.753 32.2391 751.074 32.0213C751.822 31.9023 752.453 31.5452 753.008 31.0312C753.257 30.8135 753.447 30.5754 753.812 30.8919L756.512 33.1304C754.334 35.9438 751.552 36.6363 748.391 36.0222C745.633 35.4677 743.699 33.8229 743.029 30.9122C742.358 28.0015 742.875 25.2854 745.097 23.2254C747.299 21.1843 749.924 20.9273 752.624 21.8985C755.42 22.9089 756.57 25.2665 756.858 28.1583C756.916 28.739 756.876 29.3865 756.876 30.1588H756.878ZM748.124 27.4644H751.666C751.379 26.0374 750.766 25.4233 749.75 25.4828C748.85 25.5409 748.298 26.2087 748.124 27.4644ZM724.818 25.3086L720.761 27.6139C719.376 26.1041 718.188 25.8646 717.198 26.8387C716.182 27.8331 716.208 29.8205 717.256 30.7946C718.246 31.6889 719.473 31.4101 720.78 29.9207L724.917 32.287C723.631 35.2688 720.068 36.8192 716.446 36.0237C713.141 35.2688 710.706 32.1287 710.785 28.6896C710.864 25.1329 713.34 22.1569 716.761 21.5153C720.383 20.8402 723.628 22.3282 724.818 25.3115V25.3086ZM819.383 21.3788V27.4179C819.22 27.4571 819.1 27.4963 818.976 27.4963C816.18 27.6734 815.067 28.7738 814.945 31.4885L814.925 35.4807H808.968V21.5922H814.925V23.7756C816.019 22.2615 817.295 21.1596 819.381 21.3759L819.383 21.3788Z" fill="#959AA5"/>
<path d="M675.992 43.333C677.319 43.6233 678.194 43.2531 678.962 42.099C679.492 41.2904 679.386 40.2553 678.672 39.274C678.168 38.5975 677.531 38.0937 676.722 37.8687C676.432 37.7889 676.287 37.6829 676.311 37.3243C676.747 33.2668 676.657 29.1948 676.51 25.1372C676.512 24.9864 676.521 24.8358 676.536 24.6857C678.659 24.9108 681.008 23.5316 681.815 21.5689C682.146 20.7734 682.053 19.9517 681.735 19.1823C680.806 16.9278 679.056 15.6285 676.722 15.071C676.563 15.0606 676.413 14.9908 676.303 14.8756C676.192 14.7603 676.129 14.6079 676.125 14.4483L674.507 4.91342C674.401 4.33274 674.216 3.75931 673.923 3.24395L673.26 1.94467C673.115 1.5861 672.756 1.17526 672.994 0.844275C673.273 0.472636 673.816 0.578612 674.243 0.632325C675.477 0.777496 676.565 1.33495 677.584 2.01145L680.197 3.85513C682.692 5.71332 685.383 6.04285 688.275 4.91487L689.76 4.34435C691.087 3.81448 692.453 3.56043 693.897 3.66785L698.525 3.93352C700.62 4.26451 701.668 5.24586 702.146 7.34214C702.436 8.68207 702.531 10.0612 702.477 11.4258C702.358 14.7139 702.888 17.9367 703.246 21.1857L704.294 28.6649C704.416 30.2349 704.119 31.809 703.432 33.2262C703.287 33.5165 703.113 33.7168 702.808 33.862C700.129 35.215 699.546 38.0792 701.468 40.386C701.903 40.9304 702.462 41.3804 703.021 41.8188C704.653 43.1051 705.344 44.8428 705.25 46.8708C705.196 48.2107 704.4 49.0992 703.22 49.6828C702.015 50.2634 700.7 50.4667 699.373 50.5828L696.615 50.728C695.938 50.7817 695.355 50.5828 694.812 50.2373L693.142 49.1485C691.894 48.3138 690.583 48.2731 689.23 48.8045C688.591 49.0571 687.957 49.3619 687.44 49.7858C685.517 51.3508 683.274 52.0534 680.864 52.2915C680.453 52.3307 680.028 52.4105 679.615 52.4773C678.21 52.6762 677.268 52.1463 676.712 50.8456C676.34 49.9571 676.221 49.0164 676.141 48.0873C675.967 46.4963 676.049 44.9182 676.035 43.3257L675.992 43.333ZM683.008 37.3519C681.363 37.3258 680.276 38.2142 680.105 39.7124C679.852 41.8609 681.193 44.5393 683.102 45.6005C684.177 46.1812 685.277 46.3845 686.325 45.5744C687.598 44.5931 688.739 43.4796 688.699 41.6751C688.699 41.5691 688.645 41.4632 688.619 41.3557C688.102 39.2333 685.515 37.3926 683.023 37.349L683.008 37.3519ZM691.922 13.5758C691.97 14.4445 692.254 15.2836 692.743 16.003C694.07 17.899 696.005 18.6161 697.743 15.9769C698.326 15.1015 698.3 14.2262 697.728 13.3638C696.828 12.0515 695.541 11.3895 693.976 11.3489C692.676 11.3343 691.907 12.1981 691.92 13.5627L691.922 13.5758ZM696.393 48.4895C697.108 48.504 697.798 48.3443 698.396 47.9451C699.232 47.3745 699.258 46.5398 698.45 45.9417C697.402 45.1462 695.358 45.1578 694.327 45.9678C693.584 46.5514 693.572 47.3324 694.327 47.8899C694.937 48.3254 695.639 48.4706 696.396 48.4706L696.393 48.4895ZM690.397 35.1221C689.814 35.1613 689.256 35.2673 688.779 35.6258C687.929 36.2501 687.929 37.2169 688.764 37.8542C689.652 38.5307 691.165 38.5307 692.067 37.8687C692.903 37.2445 692.916 36.2646 692.081 35.6404C691.577 35.2687 690.992 35.1497 690.397 35.1235V35.1221ZM698.806 8.68062C698.142 8.6661 697.532 8.82579 697.016 9.25114C696.377 9.78101 696.365 10.5243 696.976 11.0803C697.876 11.902 699.764 11.902 700.649 11.0803C701.233 10.5359 701.233 9.82021 700.649 9.29033C700.119 8.81127 699.482 8.6661 698.806 8.68062ZM692.36 41.7506C693.115 41.7651 693.725 41.3151 693.739 40.717C693.754 40.1334 693.155 39.6282 692.412 39.6166C691.683 39.6021 691.059 40.0811 691.033 40.6647C691.019 41.2744 691.604 41.739 692.36 41.7535V41.7506ZM690.676 28.8217C689.96 28.8217 689.416 29.3123 689.427 29.9104C689.442 30.4679 689.998 30.9441 690.661 30.9586C691.351 30.9731 691.922 30.4795 691.922 29.8843C691.936 29.2746 691.392 28.8246 690.673 28.8246L690.676 28.8217ZM701.128 7.23471C700.85 7.31455 700.465 7.37988 700.504 7.85895C700.543 8.26978 700.889 8.38882 701.233 8.37575C701.604 8.37575 701.976 8.23058 701.962 7.79217C701.935 7.36827 701.577 7.26229 701.125 7.23471H701.128ZM674.852 47.9175L673.244 42.144L668.051 22.4341C667.96 22.0756 667.947 21.7576 668.077 21.4121C668.635 19.7935 668.376 18.3592 667.039 17.2312C666.832 17.057 666.778 16.8465 666.729 16.607L665.977 12.2954C665.86 11.3271 666.444 10.5707 666.702 9.72004C666.768 9.49502 667.001 9.61406 667.157 9.62713C668.638 9.72004 669.738 8.98838 670.141 7.53086C670.49 6.25625 670.751 4.97004 669.648 3.88126C669.532 3.76222 669.48 3.64172 669.583 3.47042C670.231 2.46148 670.918 1.48158 671.879 0.57716C672.411 2.31631 673.02 3.90884 673.28 5.62041L674.668 13.9155C674.759 14.4062 674.72 14.6849 674.16 14.8591C673.019 15.2307 672.525 16.2121 672.396 17.327C672.135 19.7949 672.85 21.9725 674.719 23.6173C674.939 23.8162 675.029 24.002 675.042 24.2938L674.897 36.8888C674.858 37.2474 674.793 37.5276 674.495 37.8034C673.807 38.4538 673.846 39.3422 673.925 40.219C673.953 40.4821 674.014 40.7406 674.106 40.9885C674.91 43.2314 674.561 45.6049 675.015 47.8899C674.936 47.8899 674.873 47.9044 674.794 47.9044L674.852 47.9175Z" fill="#959AA5"/>
<path d="M904.888 38.9612L905.584 38.6424L905.667 38.1584L903.955 36.7888L904.581 36.222L904.026 33.8961L904.734 33.9669L905.207 32.9279L908.241 16.6934L909.245 11.4629H910.26L909.552 14.0368L912.987 33.2467L913.294 34.0495H914.227L913.92 35.0177L913.967 36.0921L914.156 36.7061L913.141 37.6743L912.515 38.1584L913.058 38.9612" fill="#F4F5F8"/>
<path fill-rule="evenodd" clip-rule="evenodd" d="M938.195 26.9299C936.932 25.5249 935.22 24.6984 933.366 24.6157C932.445 24.5803 931.536 24.722 930.686 25.0408L931.607 24.3914C934.901 22.0536 935.869 17.3899 933.756 13.9895C932.741 12.3601 931.17 11.2503 929.352 10.8725C927.463 10.4828 925.527 10.8961 923.897 12.0532C923.378 12.4192 922.917 12.856 922.492 13.3401C923.862 9.50287 922.221 5.11069 918.714 3.41049C917.793 2.97363 916.813 2.7375 915.833 2.7375V4.02445C916.636 4.03626 917.427 4.21336 918.183 4.57938C920.414 5.642 921.725 8.05061 921.725 10.5537C921.725 11.4156 921.559 12.3129 921.217 13.163C921.217 13.163 918.1 20.9084 915.821 26.5521V38.9493L932.764 38.9612C934.606 39.032 936.377 38.3708 937.747 37.072C939.128 35.7733 939.919 34.0022 940.002 32.1013V31.5228C939.966 29.8226 939.329 28.205 938.195 26.9299ZM915.833 2.7375C914.983 2.72569 914.133 2.89099 913.318 3.22158C911.488 3.95361 910.036 5.42947 909.268 7.38943L909.139 7.76725L908.997 7.38943C908.206 5.42947 906.777 3.95361 904.923 3.22158C903.176 2.51316 901.263 2.58401 899.54 3.41049C896.033 5.11069 894.392 9.50287 895.761 13.3401C895.336 12.856 894.876 12.4074 894.368 12.0532C892.739 10.8961 890.802 10.4828 888.913 10.8725C887.071 11.2503 885.513 12.3601 884.509 13.9895C882.396 17.3899 883.364 22.0536 886.658 24.3914C886.658 24.3914 886.989 24.6275 887.579 25.0526C886.705 24.722 885.808 24.5803 884.887 24.6157C881.156 24.7692 878.228 27.9689 878.228 31.7825L878.24 32.1013C878.405 36.0566 881.664 39.1383 885.501 38.9612L905.431 38.9493C905.715 38.9493 905.951 38.7722 906.033 38.5007C906.116 38.2409 906.022 37.934 905.797 37.7805L904.345 36.7414L904.699 36.5998C904.912 36.4227 904.994 36.1157 904.9 35.8677L904.369 34.4627L904.829 34.6044C905.101 34.569 905.337 34.3683 905.384 34.0849L908.938 14.8042C909.28 13.1512 909.446 12.2185 909.528 11.6753H910.036C909.611 12.2303 909.292 12.9505 909.292 13.8006C909.292 14.0249 909.327 14.2611 909.375 14.509L909.304 14.6861L909.316 14.816L912.905 34.0849C912.952 34.3683 913.177 34.569 913.448 34.6044C913.637 34.6162 913.791 34.569 913.909 34.4627L913.377 35.8677L913.33 36.1039C913.33 36.2928 913.401 36.4817 913.554 36.6116L913.92 36.7533L912.468 37.7923C912.244 37.9458 912.149 38.2527 912.22 38.5125C912.303 38.7959 912.551 38.9612 912.822 38.9612H915.821V26.5639C914.889 28.8662 914.109 30.8026 913.743 31.7471C913.118 28.4176 910.591 14.875 910.567 14.6861L910.614 14.5208L910.591 14.3673C910.555 14.1784 910.52 13.9895 910.52 13.8124C910.52 12.3483 911.996 11.6281 912.078 11.6045C912.303 11.4864 912.445 11.2503 912.445 11.0142L912.433 10.8725C912.362 10.5773 912.102 10.3648 911.807 10.3766C911.807 10.3766 910.65 10.4002 909.93 10.4002C909.965 9.49106 910.13 8.55831 910.414 7.88532C911.063 6.26777 912.256 5.05165 913.779 4.43769C914.44 4.16613 915.136 4.03626 915.833 4.04806V2.7375Z" fill="#959AA5"/>
<path fill-rule="evenodd" clip-rule="evenodd" d="M912.834 38.2952L929.742 26.2049H929.754C930.805 25.5437 932.021 25.1895 933.343 25.2486C936.826 25.402 939.542 28.4482 939.388 32.0612C939.247 35.6623 936.283 38.4605 932.776 38.307L912.834 38.2952Z" fill="#959AA5"/>
<path fill-rule="evenodd" clip-rule="evenodd" d="M913.964 36.0879L921.78 15.7209H921.792V15.7091C922.288 14.493 923.126 13.3831 924.248 12.5803C927.282 10.4314 931.296 11.2225 933.233 14.3159C935.169 17.4329 934.284 21.6952 931.261 23.8441L913.964 36.0879Z" fill="#959AA5"/>
<path fill-rule="evenodd" clip-rule="evenodd" d="M909.936 14.6819L913.514 33.9626L921.802 13.4067C923.254 9.7938 921.743 5.57873 918.449 3.9966C915.131 2.40266 911.282 4.02021 909.842 7.60952C909.428 8.62491 909.263 9.99452 909.299 11.0453L909.299 11.435C909.299 11.435 909.44 12.108 910.007 14.5048" fill="#959AA5"/>
<path fill-rule="evenodd" clip-rule="evenodd" d="M905.405 38.2971L888.498 26.2186H888.486C887.459 25.5574 886.219 25.2032 884.908 25.2622C881.413 25.4157 878.71 28.4619 878.839 32.0748C878.993 35.6759 881.956 38.4742 885.44 38.3207L905.405 38.2971Z" fill="#959AA5"/>
<path fill-rule="evenodd" clip-rule="evenodd" d="M904.283 36.0872L896.479 15.7203V15.7084C895.983 14.4923 895.156 13.3825 894.023 12.5796C890.977 10.4307 886.962 11.2218 885.026 14.327C883.09 17.4441 883.963 21.7064 886.998 23.8552L904.283 36.0872Z" fill="#959AA5"/>
<path fill-rule="evenodd" clip-rule="evenodd" d="M908.316 14.6819L904.738 33.9626L896.438 13.4067C894.986 9.7938 896.497 5.57873 899.791 3.9966C903.109 2.40266 906.958 4.02021 908.41 7.60952C908.811 8.62491 908.989 9.99452 908.953 11.0453C908.953 11.0453 909 11.3523 908.316 14.6819Z" fill="#959AA5"/>
<path fill-rule="evenodd" clip-rule="evenodd" d="M885.667 43.1632H885.513C883.742 43.1632 882.727 44.4737 882.727 45.7253C882.727 46.9532 883.719 48.2047 885.667 48.2047C886.647 48.2047 888.04 47.9095 888.371 46.717H893.4C893.235 48.7242 890 50.448 885.844 50.448H885.513C880.448 50.3418 877.638 48.6888 877.638 45.8197C877.638 42.3721 881.121 40.9316 885.348 40.9316C891.877 40.9316 893.011 43.2104 893.188 44.4029H888.371C887.58 43.2576 886.245 43.1632 885.667 43.1632Z" fill="#959AA5"/>
<path fill-rule="evenodd" clip-rule="evenodd" d="M899.704 41.2266L904.757 46.2563V41.2266H909.173V50.2589H902.951L898.051 45.0166V50.2589H893.871V41.2266" fill="#959AA5"/>
<path fill-rule="evenodd" clip-rule="evenodd" d="M916.684 42.9624H916.979C917.982 42.9624 918.549 43.3284 918.549 43.6472C918.549 43.9778 917.959 44.3556 916.813 44.3556H916.684V46.41H917.486C918.443 46.41 918.962 46.8705 918.962 47.2365C918.962 47.5671 918.502 47.9213 917.486 47.9213H916.684V50.2472H918.148C922.032 50.2472 924.193 48.7123 924.193 47.4608C924.193 46.5281 923.508 45.6071 921.713 45.2765C922.906 44.9813 923.579 44.2611 923.579 43.5645C923.579 42.3248 922.54 41.2031 917.014 41.2149H916.684V42.9624ZM914.806 42.9624H916.684V41.2267H910.213V50.259H916.684V47.9331H914.653V46.4218H916.684V44.3674H914.806V42.9624Z" fill="#959AA5"/>
<path fill-rule="evenodd" clip-rule="evenodd" d="M932.54 43.1632H932.375C930.592 43.1632 929.577 44.4737 929.577 45.7253C929.577 46.9532 930.58 48.2047 932.54 48.2047C933.509 48.2047 934.902 47.9095 935.232 46.717H940.262C940.097 48.7242 936.862 50.448 932.706 50.448H932.387C927.322 50.3418 924.512 48.6888 924.512 45.8197C924.512 42.3721 927.995 40.9316 932.21 40.9316C938.739 40.9316 939.896 43.2104 940.061 44.4029H935.244C934.583 43.1986 933.095 43.1632 932.54 43.1632Z" fill="#959AA5"/>
</g>
<defs>
<clipPath id="clip0_128_434">
<rect width="183.442" height="35.6693" fill="white" transform="translate(0.261719 8.12695)"/>
</clipPath>
</defs>
</svg>
