<svg width="49" height="49" viewBox="0 0 49 49" fill="none" xmlns="http://www.w3.org/2000/svg">
<path d="M13.1464 33.869C12.5606 34.4548 12.5606 35.4046 13.1464 35.9903C13.7322 36.5761 14.6819 36.5761 15.2677 35.9903L13.1464 33.869ZM25.2677 25.9903C25.8535 25.4046 25.8535 24.4548 25.2677 23.869C24.6819 23.2832 23.7322 23.2832 23.1464 23.869L25.2677 25.9903ZM23.1464 23.869C22.5606 24.4548 22.5606 25.4046 23.1464 25.9903C23.7322 26.5761 24.6819 26.5761 25.2677 25.9903L23.1464 23.869ZM35.2677 15.9903C35.8535 15.4046 35.8535 14.4548 35.2677 13.869C34.6819 13.2832 33.7322 13.2832 33.1464 13.869L35.2677 15.9903ZM25.2677 23.869C24.6819 23.2832 23.7322 23.2832 23.1464 23.869C22.5606 24.4548 22.5606 25.4046 23.1464 25.9903L25.2677 23.869ZM33.1464 35.9903C33.7322 36.5761 34.6819 36.5761 35.2677 35.9903C35.8535 35.4046 35.8535 34.4548 35.2677 33.869L33.1464 35.9903ZM23.1464 25.9903C23.7322 26.5761 24.6819 26.5761 25.2677 25.9903C25.8535 25.4046 25.8535 24.4548 25.2677 23.869L23.1464 25.9903ZM15.2677 13.869C14.6819 13.2832 13.7322 13.2832 13.1464 13.869C12.5606 14.4548 12.5606 15.4046 13.1464 15.9903L15.2677 13.869ZM15.2677 35.9903L25.2677 25.9903L23.1464 23.869L13.1464 33.869L15.2677 35.9903ZM25.2677 25.9903L35.2677 15.9903L33.1464 13.869L23.1464 23.869L25.2677 25.9903ZM23.1464 25.9903L33.1464 35.9903L35.2677 33.869L25.2677 23.869L23.1464 25.9903ZM25.2677 23.869L15.2677 13.869L13.1464 15.9903L23.1464 25.9903L25.2677 23.869Z" fill="#383C43"/>
</svg>
