<svg width="135" height="21" viewBox="0 0 135 21" fill="none" xmlns="http://www.w3.org/2000/svg">
<path d="M20.3933 7.49602L14.1397 6.59161L11.3442 0.951908C11.2679 0.797497 11.1422 0.672497 10.9871 0.596516C10.5979 0.40534 10.125 0.564654 9.93045 0.951908L7.13494 6.59161L0.881364 7.49602C0.708954 7.52053 0.551321 7.60142 0.430634 7.72396C0.284729 7.8732 0.20433 8.07397 0.207101 8.28216C0.209872 8.49035 0.295587 8.68892 0.445412 8.83426L4.96995 13.224L3.90101 19.4225C3.87594 19.5667 3.89198 19.715 3.94729 19.8506C4.00261 19.9861 4.095 20.1036 4.21398 20.1896C4.33296 20.2756 4.47377 20.3267 4.62045 20.3371C4.76713 20.3475 4.91381 20.3168 5.04384 20.2485L10.6373 17.322L16.2308 20.2485C16.3835 20.3294 16.5609 20.3563 16.7308 20.3269C17.1594 20.2534 17.4475 19.849 17.3737 19.4225L16.3047 13.224L20.8293 8.83426C20.9524 8.71416 21.0337 8.5573 21.0583 8.38573C21.1248 7.95681 20.8243 7.55975 20.3933 7.49602Z" fill="url(#paint0_linear_128_584)"/>
<path d="M48.6921 7.49602L42.4386 6.59161L39.643 0.951908C39.5667 0.797497 39.4411 0.672497 39.2859 0.596516C38.8968 0.40534 38.4239 0.564654 38.2293 0.951908L35.4338 6.59161L29.1802 7.49602C29.0078 7.52053 28.8501 7.60142 28.7295 7.72396C28.5836 7.8732 28.5032 8.07397 28.5059 8.28216C28.5087 8.49035 28.5944 8.68892 28.7442 8.83426L33.2688 13.224L32.1998 19.4225C32.1748 19.5667 32.1908 19.715 32.2461 19.8506C32.3014 19.9861 32.3938 20.1036 32.5128 20.1896C32.6318 20.2756 32.7726 20.3267 32.9193 20.3371C33.066 20.3475 33.2126 20.3168 33.3427 20.2485L38.9362 17.322L44.5296 20.2485C44.6824 20.3294 44.8597 20.3563 45.0296 20.3269C45.4582 20.2534 45.7464 19.849 45.6725 19.4225L44.6035 13.224L49.1281 8.83426C49.2512 8.71416 49.3325 8.5573 49.3571 8.38573C49.4236 7.95681 49.1232 7.55975 48.6921 7.49602Z" fill="url(#paint1_linear_128_584)"/>
<path d="M77.0007 7.49602L70.7472 6.59161L67.9516 0.951908C67.8753 0.797497 67.7497 0.672497 67.5945 0.596516C67.2053 0.40534 66.7324 0.564654 66.5379 0.951908L63.7424 6.59161L57.4888 7.49602C57.3164 7.52053 57.1587 7.60142 57.0381 7.72396C56.8922 7.8732 56.8118 8.07397 56.8145 8.28216C56.8173 8.49035 56.903 8.68892 57.0528 8.83426L61.5774 13.224L60.5084 19.4225C60.4834 19.5667 60.4994 19.715 60.5547 19.8506C60.61 19.9861 60.7024 20.1036 60.8214 20.1896C60.9404 20.2756 61.0812 20.3267 61.2279 20.3371C61.3746 20.3475 61.5212 20.3168 61.6513 20.2485L67.2448 17.322L72.8382 20.2485C72.9909 20.3294 73.1683 20.3563 73.3382 20.3269C73.7668 20.2534 74.055 19.849 73.9811 19.4225L72.9121 13.224L77.4367 8.83426C77.5598 8.71416 77.6411 8.5573 77.6657 8.38573C77.7322 7.95681 77.4317 7.55975 77.0007 7.49602Z" fill="url(#paint2_linear_128_584)"/>
<path d="M105.304 7.49602L99.0509 6.59161L96.2553 0.951908C96.179 0.797497 96.0534 0.672497 95.8982 0.596516C95.5091 0.40534 95.0362 0.564654 94.8416 0.951908L92.0461 6.59161L85.7925 7.49602C85.6201 7.52053 85.4625 7.60142 85.3418 7.72396C85.1959 7.8732 85.1155 8.07397 85.1182 8.28216C85.121 8.49035 85.2067 8.68892 85.3565 8.83426L89.8811 13.224L88.8121 19.4225C88.7871 19.5667 88.8031 19.715 88.8584 19.8506C88.9137 19.9861 89.0061 20.1036 89.1251 20.1896C89.2441 20.2756 89.3849 20.3267 89.5316 20.3371C89.6783 20.3475 89.8249 20.3168 89.955 20.2485L95.5485 17.322L101.142 20.2485C101.295 20.3294 101.472 20.3563 101.642 20.3269C102.071 20.2534 102.359 19.849 102.285 19.4225L101.216 13.224L105.74 8.83426C105.864 8.71416 105.945 8.5573 105.969 8.38573C106.036 7.95681 105.735 7.55975 105.304 7.49602Z" fill="url(#paint3_linear_128_584)"/>
<path d="M133.604 7.49602L127.351 6.59161L124.555 0.951908C124.479 0.797497 124.353 0.672497 124.198 0.596516C123.809 0.40534 123.336 0.564654 123.141 0.951908L120.346 6.59161L114.092 7.49602C113.92 7.52053 113.762 7.60142 113.642 7.72396C113.496 7.8732 113.415 8.07397 113.418 8.28216C113.421 8.49035 113.507 8.68892 113.656 8.83426L118.181 13.224L117.112 19.4225C117.087 19.5667 117.103 19.715 117.158 19.8506C117.214 19.9861 117.306 20.1036 117.425 20.1896C117.544 20.2756 117.685 20.3267 117.831 20.3371C117.978 20.3475 118.125 20.3168 118.255 20.2485L123.848 17.322L129.442 20.2485C129.594 20.3294 129.772 20.3563 129.942 20.3269C130.37 20.2534 130.658 19.849 130.585 19.4225L129.516 13.224L134.04 8.83426C134.163 8.71416 134.245 8.5573 134.269 8.38573C134.336 7.95681 134.035 7.55975 133.604 7.49602Z" fill="url(#paint4_linear_128_584)"/>
<path fill-rule="evenodd" clip-rule="evenodd" d="M132.18 7.28727L133.607 7.49372C133.976 7.54824 134.249 7.84672 134.279 8.20041V8.32838C134.277 8.34666 134.275 8.36501 134.272 8.38343C134.248 8.55499 134.166 8.71186 134.043 8.83196L132.18 10.6399V7.28727ZM127.979 6.67969L132.176 7.28677V10.6432L129.519 13.2217L130.588 19.4202C130.661 19.8467 130.373 20.2511 129.945 20.3246C129.775 20.354 129.597 20.327 129.445 20.2462L127.979 19.4791V6.67969Z" fill="#787F88"/>
<defs>
<linearGradient id="paint0_linear_128_584" x1="0.207031" y1="10.4273" x2="21.0675" y2="10.4273" gradientUnits="userSpaceOnUse">
<stop stop-color="#17C95F"/>
<stop offset="1" stop-color="#138241"/>
</linearGradient>
<linearGradient id="paint1_linear_128_584" x1="28.5059" y1="10.4273" x2="49.3664" y2="10.4273" gradientUnits="userSpaceOnUse">
<stop stop-color="#17C95F"/>
<stop offset="1" stop-color="#138241"/>
</linearGradient>
<linearGradient id="paint2_linear_128_584" x1="56.8145" y1="10.4273" x2="77.675" y2="10.4273" gradientUnits="userSpaceOnUse">
<stop stop-color="#17C95F"/>
<stop offset="1" stop-color="#138241"/>
</linearGradient>
<linearGradient id="paint3_linear_128_584" x1="85.1182" y1="10.4273" x2="105.979" y2="10.4273" gradientUnits="userSpaceOnUse">
<stop stop-color="#17C95F"/>
<stop offset="1" stop-color="#138241"/>
</linearGradient>
<linearGradient id="paint4_linear_128_584" x1="113.418" y1="10.4273" x2="134.278" y2="10.4273" gradientUnits="userSpaceOnUse">
<stop stop-color="#17C95F"/>
<stop offset="1" stop-color="#138241"/>
</linearGradient>
</defs>
</svg>
